HIERARCHY
ROOT Hips
{
	OFFSET 0.00 0.00 0.00
	CHANNELS 6 Xposition Yposition Zposition Xrotation Yrotation Zrotation
	JOINT LeftUpLeg
	{
		OFFSET 3.77282 0.00000 0.00000
		CHANNELS 3 Xrotation Yrotation Zrotation
		JOINT LeftLeg
		{
			OFFSET 0.00000 -17.00973 0.00000
			CHANNELS 3 Xrotation Yrotation Zrotation
			JOINT LeftFoot
			{
				OFFSET 0.00000 -15.74253 0.00000
				CHANNELS 3 Xrotation Yrotation Zrotation
				JOINT LeftToeBase
				{
					OFFSET 0.00000 -1.60748 5.99922
					CHANNELS 3 Xrotation Yrotation Zrotation
					End Site
					{
						OFFSET 0.00000 0.00000 2.95275
					}
				}
			}
		}
	}
	JOINT RightUpLeg
	{
		OFFSET -3.77282 0.00000 0.00000
		CHANNELS 3 Xrotation Yrotation Zrotation
		JOINT RightLeg
		{
			OFFSET 0.00000 -17.00973 0.00000
			CHANNELS 3 Xrotation Yrotation Zrotation
			JOINT RightFoot
			{
				OFFSET 0.00000 -15.74253 0.00000
				CHANNELS 3 Xrotation Yrotation Zrotation
				JOINT RightToeBase
				{
					OFFSET 0.00000 -1.60748 5.99922
					CHANNELS 3 Xrotation Yrotation Zrotation
					End Site
					{
						OFFSET 0.00000 0.00000 2.95275
					}
				}
			}
		}
	}
	JOINT Spine
	{
		OFFSET 0.00000 0.03937 0.00000
		CHANNELS 3 Xrotation Yrotation Zrotation
		JOINT Spine1
		{
			OFFSET 0.00000 6.63707 0.00000
			CHANNELS 3 Xrotation Yrotation Zrotation
			JOINT Neck
			{
				OFFSET 0.00000 11.04423 0.00000
				CHANNELS 3 Xrotation Yrotation Zrotation
				JOINT Head
				{
					OFFSET 0.00000 5.48188 0.00000
					CHANNELS 3 Xrotation Yrotation Zrotation
					End Site
					{
						OFFSET 0.00000 4.52755 0.00000
					}
				}
			}
			JOINT LeftShoulder
			{
				OFFSET 0.00000 11.04423 0.00000
				CHANNELS 3 Xrotation Yrotation Zrotation
				JOINT LeftArm
				{
					OFFSET 6.93940 -0.00003 0.00000
					CHANNELS 3 Xrotation Yrotation Zrotation
					JOINT LeftForeArm
					{
						OFFSET 9.84774 -0.00004 0.00000
						CHANNELS 3 Xrotation Yrotation Zrotation
						JOINT LeftHand
						{
							OFFSET 9.01486 -0.00003 0.00000
							CHANNELS 3 Xrotation Yrotation Zrotation
							JOINT LeftHandThumb
							{
								OFFSET 0.00000 0.00000 0.00000
								CHANNELS 3 Xrotation Yrotation Zrotation
								End Site
								{
									OFFSET 0.00000 0.00000 3.93700
								}
							}
							JOINT L_Wrist_End
							{
								OFFSET 3.93700 -0.00001 0.00000
								CHANNELS 3 Xrotation Yrotation Zrotation
							}
						}
					}
				}
			}
			JOINT RightShoulder
			{
				OFFSET 0.00000 11.04423 0.00000
				CHANNELS 3 Xrotation Yrotation Zrotation
				JOINT RightArm
				{
					OFFSET -6.93940 -0.00003 0.00000
					CHANNELS 3 Xrotation Yrotation Zrotation
					JOINT RightForeArm
					{
						OFFSET -9.84774 -0.00004 0.00000
						CHANNELS 3 Xrotation Yrotation Zrotation
						JOINT RightHand
						{
							OFFSET -9.01486 -0.00003 0.00000
							CHANNELS 3 Xrotation Yrotation Zrotation
							JOINT RightHandThumb
							{
								OFFSET 0.00000 0.00000 0.00000
								CHANNELS 3 Xrotation Yrotation Zrotation
								End Site
								{
									OFFSET 0.00000 0.00000 3.93700
								}
							}
							JOINT R_Wrist_End
							{
								OFFSET -5.39369 -0.00002 0.00000
								CHANNELS 3 Xrotation Yrotation Zrotation
							}
						}
					}
				}
			}
		}
	}
}
MOTION
Frames: 11
Frame Time: 0.066664
 -0.6260 32.5661 -1.5803 3.0962 -4.8889 0.6604 -17.8649 2.3451 0.2229 49.6699 -0.0000 0.0000 -27.2022 6.5219 -0.2128 -12.0907 0.0000 -0.0000 -18.5171 -6.6033 2.1493 49.9965 -0.0000 0.0000 -22.6483 -2.0698 -22.5545 -14.0283 0.0000 0.0000 -14.3455 0.5536 1.6114 23.6274 0.9251 -3.1429 10.8002 6.4971 4.4833 -28.6591 7.3072 -11.9502 5.9835 2.8981 7.6139 -0.0901 7.5290 -53.3820 -0.0001 -17.1069 -0.0000 15.2088 6.8343 -3.4201 -0.0000 -0.0000 0.0000 -0.0000 -0.0000 0.0000 7.5841 0.0366 -3.7077 9.3655 -5.7674 62.4571 -0.0001 20.5496 0.0000 4.5263 29.6093 -15.0174 -0.0000 -0.0000 0.0000 -0.0000 -0.0000 0.0000
 -0.9171 35.0271 -1.0031 1.7636 -3.5773 1.5958 -11.1130 7.1961 1.7411 36.8793 -0.0000 0.0000 -7.7145 -1.8127 -5.1363 -22.9892 0.0000 -0.0000 -9.7974 -9.5805 0.4455 34.7924 -0.0000 0.0000 -8.5532 2.5413 -13.9488 -15.5865 0.0000 0.0000 -13.8482 0.5783 0.8680 22.0283 0.7909 -3.6999 15.2562 7.0728 5.2005 -30.9038 5.9743 -12.2791 7.0371 0.2087 9.0828 2.8487 4.1051 -56.4308 -0.0001 -15.4373 -0.0000 11.5296 7.9647 1.5514 -0.0000 -0.0000 0.0000 -0.0000 -0.0000 0.0000 9.3321 0.7471 -4.7504 13.0317 -0.5535 64.5782 -0.0001 18.6656 0.0000 4.4319 29.5085 -17.0772 -0.0000 -0.0000 0.0000 -0.0000 -0.0000 0.0000
 -1.3015 38.7267 -0.1963 1.0519 -3.2291 1.7582 -4.4428 6.7100 2.2804 20.1027 -0.0000 0.0000 23.0807 -4.3395 -13.4277 -17.6993 0.0000 -0.0000 -1.2159 -5.8773 -0.2187 14.9945 -0.0000 0.0000 21.0271 7.8673 6.8528 -12.1515 0.0000 0.0000 -10.1472 0.8710 0.2709 11.5438 1.0639 -4.0729 24.3383 6.6484 7.4379 -27.4320 5.3295 -14.2213 7.8323 -0.7568 8.8639 6.3788 0.9693 -58.4534 -0.0001 -14.2819 -0.0000 14.7098 6.0737 -0.8346 -0.0000 -0.0000 0.0000 -0.0000 -0.0000 0.0000 11.5848 0.3899 -4.7503 15.0012 -3.4018 67.0868 -0.0001 18.3311 0.0000 2.6178 28.2285 -15.2944 -0.0000 0.0000 -0.0000 -0.0000 0.0000 -0.0000
 -1.5844 40.8464 -0.0056 -1.0517 -3.6719 0.9237 -5.0510 2.5076 1.9327 28.0512 -0.0000 0.0000 21.9620 2.5375 -10.9186 -15.7837 0.0000 -0.0000 -3.3659 -1.9150 -0.5324 25.8866 -0.0000 0.0000 26.1336 11.9959 1.7864 -11.8616 0.0000 0.0000 -7.5760 0.6036 0.2618 10.1091 0.9246 -3.5727 30.9229 9.5932 7.4402 -37.1553 4.4757 -16.7669 7.5323 -2.0579 7.0823 5.9530 4.7593 -58.2338 -0.0001 -13.5627 -0.0000 9.2823 5.8417 4.0975 -0.0000 0.0000 -0.0000 -0.0000 0.0000 -0.0000 11.2636 3.1818 -2.1331 15.0075 -7.5821 64.7507 -0.0001 15.3234 0.0000 3.4547 27.4216 -22.8500 -0.0000 0.0000 -0.0000 -0.0000 0.0000 -0.0000
 -1.8929 41.0808 -0.0707 -2.2280 -4.7541 -0.4749 -4.0698 0.1467 1.9766 27.0966 -0.0000 0.0000 14.6010 -2.9162 -10.9801 -17.0356 0.0000 0.0000 -4.7642 -2.8429 0.2094 30.3108 -0.0000 0.0000 18.0298 7.3346 -2.7658 -13.7640 0.0000 -0.0000 -8.8689 0.6185 0.9966 15.2596 1.0582 -3.0344 23.9515 7.8886 6.0896 -28.9614 5.2582 -13.5919 5.9439 -1.4997 8.3002 4.9480 3.4042 -59.9083 -0.0001 -13.7330 -0.0000 8.0001 6.4704 4.8737 -0.0000 0.0000 -0.0000 -0.0000 0.0000 -0.0000 9.9075 2.8889 -4.1830 14.0339 -3.2115 66.6074 -0.0001 15.3279 0.0000 1.2555 27.9599 -22.2962 -0.0000 -0.0000 0.0000 -0.0000 -0.0000 0.0000
 -2.2260 39.7649 0.1494 -0.2897 -4.8814 -1.4694 -4.9792 1.8364 2.1429 22.5588 -0.0000 0.0000 11.7592 -0.5434 -12.0458 -17.0263 0.0000 0.0000 -5.9336 -5.4954 1.0560 24.8828 -0.0000 0.0000 12.6790 1.6248 -3.4213 -13.1056 0.0000 0.0000 -13.4245 0.2669 1.3207 19.0862 0.9942 -2.5000 22.0346 7.7802 6.1750 -28.2261 6.0037 -12.6327 6.8827 -0.4829 8.6629 2.6734 2.6616 -60.9467 -0.0001 -15.2863 -0.0000 6.8628 4.2500 4.6526 -0.0000 0.0000 -0.0000 -0.0000 0.0000 -0.0000 9.3410 2.1020 -3.8048 11.8343 -3.2385 67.0647 -0.0001 17.0243 0.0000 1.6117 28.2497 -21.4181 -0.0000 0.0000 -0.0000 -0.0000 0.0000 -0.0000
 -2.5039 36.7188 0.3805 -0.7916 -5.5542 -1.9524 -5.6109 4.1569 1.6947 27.0234 -0.0000 0.0000 5.0387 -0.0290 -7.8831 -28.0886 0.0000 -0.0000 -6.2580 -6.7185 0.4859 25.4734 -0.0000 0.0000 9.8351 4.8426 -4.2403 -23.4792 0.0000 -0.0000 -12.9297 0.3654 1.2592 18.0508 1.2321 -2.2183 23.5602 7.1527 7.3984 -30.4112 7.2256 -13.5388 6.2346 -1.7334 7.6721 3.7146 2.8466 -60.8622 -0.0001 -13.6598 -0.0000 6.8288 4.2388 4.7937 -0.0000 0.0000 -0.0000 -0.0000 0.0000 -0.0000 9.2944 3.1234 -2.3935 11.4705 -2.5220 66.3213 -0.0001 15.3558 0.0000 0.1439 28.4392 -21.6264 -0.0000 -0.0000 0.0000 -0.0000 -0.0000 0.0000
 -2.7972 32.9162 -0.0178 0.3451 -5.6767 -2.6932 -14.2833 2.3290 1.4529 46.9027 -0.0000 0.0000 -27.7105 6.6086 1.8292 -11.0596 0.0000 0.0000 -14.7299 -5.0716 3.3096 44.9381 -0.0000 0.0000 -18.8673 -1.6138 -23.8167 -15.6301 0.0000 -0.0000 -9.1301 0.5517 1.0042 13.5204 1.8013 -1.0444 18.5139 6.6042 6.6666 -28.8011 6.5037 -11.9247 4.7325 -1.1716 7.6015 4.7065 1.9159 -60.8816 -0.0001 -16.5612 -0.0000 9.3355 5.1468 1.5818 -0.0000 0.0000 -0.0000 -0.0000 0.0000 -0.0000 7.7521 1.5479 -2.1550 12.8079 -1.7131 64.9854 -0.0001 18.5664 0.0000 2.3510 29.2153 -18.9663 -0.0000 -0.0000 0.0000 -0.0000 -0.0000 0.0000
 -2.8336 33.0585 0.1621 -0.4768 -4.9942 -2.0256 -13.9600 4.0899 1.6537 47.8668 -0.0000 0.0000 -24.6900 4.2392 0.7542 -14.3476 0.0000 -0.0000 -14.3598 -7.2752 1.4022 46.3626 -0.0000 0.0000 -17.9360 1.0884 -19.9581 -15.8649 0.0000 0.0000 -15.7701 0.3118 0.9852 26.4617 1.4115 -1.5657 11.1352 6.0382 6.1962 -31.1965 6.9801 -11.4073 7.0171 -0.5570 7.5600 -0.3554 -2.3107 -63.7383 -0.0001 -17.5193 -0.0000 7.8497 5.5966 2.9394 -0.0000 -0.0000 0.0000 -0.0000 -0.0000 0.0000 9.1459 0.9782 -3.0428 9.9190 4.2276 65.4836 -0.0001 21.3411 0.0000 3.1160 29.5565 -21.1156 -0.0000 -0.0000 0.0000 -0.0000 -0.0000 0.0000
 -2.8566 36.5978 0.7799 -0.2936 -4.1364 -1.0287 -6.4620 7.4237 2.0727 28.7547 -0.0000 0.0000 5.0375 -3.0578 -5.8575 -28.8838 0.0000 0.0000 -4.7605 -5.8976 0.6490 24.5457 -0.0000 0.0000 5.4256 3.4805 -3.2390 -17.4295 0.0000 -0.0000 -11.8163 0.6076 0.7476 15.2264 1.2637 -2.4645 20.0278 6.8618 6.8226 -30.3012 6.0157 -12.7978 7.7563 -1.9588 7.8813 5.4710 -9.8230 -68.6027 -0.0001 -15.2076 -0.0000 9.5347 4.9117 -0.3273 -0.0000 0.0000 -0.0000 -0.0000 0.0000 -0.0000 10.5588 2.3248 -4.4982 15.1106 9.9090 70.1810 -0.0001 19.3451 0.0000 1.8018 29.4664 -16.3128 -0.0000 0.0000 -0.0000 -0.0000 0.0000 -0.0000
 -2.7946 39.8452 1.1142 -0.9543 -4.1079 -0.6181 -2.3613 1.3967 1.2248 18.2305 -0.0000 0.0000 27.0571 0.8435 -14.2654 -15.4536 0.0000 0.0000 -1.3663 -2.5362 -0.0425 17.2030 -0.0000 0.0000 23.2387 5.4955 1.5591 -11.2713 0.0000 0.0000 -8.4515 0.9012 0.3537 8.9693 1.5894 -2.4910 26.9191 6.0944 9.1795 -33.4190 7.4072 -17.0796 8.4031 -2.4137 7.7268 7.2961 -11.7137 -71.8248 -0.0001 -13.5941 -0.0000 8.5827 4.3662 0.8996 -0.0000 0.0000 -0.0000 -0.0000 0.0000 -0.0000 12.1610 3.2234 -3.7857 15.0434 6.4552 72.3219 -0.0001 17.8741 0.0000 1.7109 27.8489 -18.0016 -0.0000 0.0000 -0.0000 -0.0000 0.0000 -0.0000
